<svg xmlns="http://www.w3.org/2000/svg" viewBox="0 0 613.41 613.42"><defs><style>.cls-1{fill:#fff;}</style></defs><g id="Layer_2" data-name="Layer 2"><g id="Layer_1-2" data-name="Layer 1"><path d="M613.41,306.73c0,169.38-137.31,306.69-306.69,306.69h0C137.32,613.42,0,476.1,0,306.71H0C0,137.32,137.32,0,306.71,0h0C476.1,0,613.41,137.31,613.41,306.69Z"/><path class="cls-1" d="M160.33,253.1h66.29V466.32H160.33Zm33.16-106a38.43,38.43,0,1,1-38.41,38.46,38.45,38.45,0,0,1,38.41-38.46"/><path class="cls-1" d="M268.18,253.1h63.58v29.17h.91c8.84-16.79,30.46-34.44,62.69-34.44,67.11,0,79.51,44.15,79.51,101.54v117H408.62V362.63c0-24.72-.43-56.55-34.45-56.55-34.48,0-39.74,27-39.74,54.78V466.32H268.18Z"/></g></g></svg>